<svg id="圖層_1" data-name="圖層 1" xmlns="http://www.w3.org/2000/svg" viewBox="0 0 1110 227"><defs><style>.cls-1{font-size:200px;fill:#00a800;stroke:#00a800;stroke-width:12px;font-family:HanWangYanKai;}.cls-1,.cls-3{stroke-miterlimit:10;}.cls-2{fill:#00b200;}.cls-3{fill:none;stroke:#00b200;stroke-width:14px;}</style></defs><text class="cls-1" transform="translate(291 166.16)">水尾民宿</text><path class="cls-2" d="M85.9,87.39c21.63,0,61.26,3.61,83.61,27.78,11.92,12.88,17.94,30.67,18,53a95.94,95.94,0,0,1-9.85.51,92.36,92.36,0,0,1-52.81-16.26c-19.57-13.58-35-35.36-45.95-64.88,2.19-.07,4.54-.12,7-.12m0-14A189.75,189.75,0,0,0,60,75c27.22,93.52,85.12,107.65,117.62,107.65A93.68,93.68,0,0,0,201,180C208.36,85.84,128.59,73.39,85.9,73.39Z" transform="translate(-60 -34)"/><path class="cls-2" d="M315.05,125.53c-13.39,14.35-27,26.2-40.16,34.87-20.93,13.81-33.73,15.3-38.26,15.3a13.73,13.73,0,0,1-3.74-.43c.28-2.24,2.27-7.75,9.6-15.92,21.9-24.43,51.38-31.9,72.56-33.82m12.87-14.59c-23.27,0-65.53,5.24-95.85,39.06-20.68,23.06-15.49,39.7,4.56,39.7,22.55,0,63.9-21.06,108.37-77.7a119.31,119.31,0,0,0-17.08-1.06Z" transform="translate(-60 -34)"/><path class="cls-3" d="M102.92,187.36s30.93,49.36,119.06-6.12" transform="translate(-60 -34)"/><line class="cls-3" x1="42.5" y1="85.5" x2="63.5" y2="58.5"/><line class="cls-3" x1="80.5" y1="118.5" x2="104.5" y2="85.5"/><line class="cls-3" x1="102.5" y1="134.5" x2="128.5" y2="98.5"/><line class="cls-3" x1="243.5" y1="108.5" x2="232.5" y2="94.5"/><line class="cls-3" x1="224.5" y1="121.5" x2="207.5" y2="101.5"/><line class="cls-3" x1="200.5" y1="134.5" x2="186.5" y2="116.5"/><line class="cls-3" x1="24.5" y1="73.5" x2="42.5" y2="49.5"/><line class="cls-3" x1="60.5" y1="101.5" x2="85.5" y2="70.5"/></svg>